<svg id="SvgjsSvg1001" width="288" height="288" xmlns="http://www.w3.org/2000/svg" version="1.1" xmlns:xlink="http://www.w3.org/1999/xlink" xmlns:svgjs="http://svgjs.com/svgjs"><defs id="SvgjsDefs1002"></defs><g id="SvgjsG1008"><svg xmlns="http://www.w3.org/2000/svg" viewBox="0 0 512 512" width="288" height="288"><path d="m390 180h-31.597656c19.484375-19.074219 31.597656-45.644531 31.597656-75 0-57.898438-47.101562-105-105-105-38.152344 0-71.613281 20.453125-90 50.972656-18.386719-30.519531-51.847656-50.972656-90-50.972656-57.898438 0-105 47.101562-105 105 0 29.355469 12.113281 55.925781 31.597656 75h-31.597656v180h169.3125l-77.375 137.128906 26.125 14.742188 76.9375-136.347656 76.9375 136.347656 26.125-14.742188-77.375-137.128906h169.3125v-25.863281l122 30v-188.273438l-122 30zm-105-150c41.355469 0 75 33.644531 75 75s-33.644531 75-75 75-75-33.644531-75-75 33.644531-75 75-75zm-73.402344 150h-33.195312c6.378906-6.242188 11.964844-13.285156 16.597656-20.972656 4.632812 7.6875 10.21875 14.730468 16.597656 20.972656zm-181.597656-75c0-41.355469 33.644531-75 75-75s75 33.644531 75 75-33.644531 75-75 75-75-33.644531-75-75zm330 225h-330v-120h330zm122-115.863281v111.726562l-92-22.621093v-66.484376zm0 0" fill="#ffffff" class="color000 svgShape"></path><path d="M105 60c-24.8125 0-45 20.1875-45 45s20.1875 45 45 45 45-20.1875 45-45-20.1875-45-45-45zm0 60c-8.269531 0-15-6.730469-15-15s6.730469-15 15-15 15 6.730469 15 15-6.730469 15-15 15zm0 0M285 150c24.8125 0 45-20.1875 45-45s-20.1875-45-45-45-45 20.1875-45 45 20.1875 45 45 45zm0-60c8.269531 0 15 6.730469 15 15s-6.730469 15-15 15-15-6.730469-15-15 6.730469-15 15-15zm0 0M315 233.785156l21.210938 21.210938-21.210938 21.214844-21.214844-21.214844zm0 0M255 276.21875l-21.214844-21.214844 21.214844-21.210937 21.210938 21.210937zm0 0" fill="#ffffff" class="color000 svgShape"></path></svg></g></svg>