<svg id="SvgjsSvg1037" width="288" height="288" xmlns="http://www.w3.org/2000/svg" version="1.1" xmlns:xlink="http://www.w3.org/1999/xlink" xmlns:svgjs="http://svgjs.com/svgjs"><defs id="SvgjsDefs1038"></defs><g id="SvgjsG1039"><svg xmlns="http://www.w3.org/2000/svg" viewBox="0 0 512 512" width="288" height="288"><path d="m0 512h512c0-10.628906 0-497.507812 0-512h-512zm482-30h-452v-90h452zm-452-452h452v332h-452zm0 0" fill="#ffffff" class="color000 svgShape"></path><path d="M121 61h-30v150h-30v90h30v30h30v-30h30v-90h-30zm0 210h-30v-30h30zm0 0M211 61h-30v30h-30v90h30v150h30v-150h30v-90h-30zm0 90h-30v-30h30zm0 0M421 61h-30v150h-30v90h30v30h30v-30h30v-90h-30zm0 210h-30v-30h30zm0 0M61 422h60v30h-60zm0 0M151 422h60v30h-60zm0 0M241 422h60v30h-60zm0 0M361 415.78125l21.214844 21.214844-21.214844 21.210937-21.210938-21.210937zm0 0M421 415.78125l21.214844 21.214844-21.214844 21.210937-21.214844-21.210937zm0 0M361 181v-90h-30v-30h-30v30h-30v90h30v150h30v-150zm-60-60h30v30h-30zm0 0" fill="#ffffff" class="color000 svgShape"></path></svg></g></svg>