<svg id="SvgjsSvg1032" width="288" height="288" xmlns="http://www.w3.org/2000/svg" version="1.1" xmlns:xlink="http://www.w3.org/1999/xlink" xmlns:svgjs="http://svgjs.com/svgjs"><defs id="SvgjsDefs1033"></defs><g id="SvgjsG1034"><svg xmlns="http://www.w3.org/2000/svg" viewBox="-91 0 512 512" width="288" height="288"><path d="m0 210.960938v149.972656h40.082031l99.527344 72.984375-73.492187 53.894531 17.738281 24.1875 81.113281-59.484375 81.113281 59.484375 17.738281-24.1875-73.488281-53.894531 99.523438-72.984375h40.082031v-149.972656h-29.992188v-29.996094h29.992188v-150.96875h-29.992188v-29.996094h-29.996093v29.996094h-209.960938v-29.996094h-29.992187v29.996094h-29.996094v150.96875h29.996094v29.996094zm239.957031 119.976562h-149.972656v-29.992188h149.972656zm-209.960937-89.984375h29.992187v89.984375h-29.992187zm134.972656 174.367187-74.164062-54.386718h148.332031zm134.976562-84.382812h-29.996093v-89.984375h29.996093zm-269.949218-270.949219h269.949218v90.984375h-269.949218zm29.992187 120.976563h209.960938v29.996094h-29.992188v59.988281h-149.972656v-59.988281h-29.996094zm0 0" fill="#ffffff" class="color000 svgShape"></path></svg></g></svg>