<svg id="SvgjsSvg1027" width="288" height="288" xmlns="http://www.w3.org/2000/svg" version="1.1" xmlns:xlink="http://www.w3.org/1999/xlink" xmlns:svgjs="http://svgjs.com/svgjs"><defs id="SvgjsDefs1028"></defs><g id="SvgjsG1029"><svg xmlns="http://www.w3.org/2000/svg" viewBox="0 -15 512 512" width="288" height="288"><path d="m436.046875.101562-75.949219 77.332032 44.804688 44.808594h-43.691406v29.933593h29.9375v29.933594c0 36.222656-16.171876 68.742187-41.675782 90.714844l-18.195312-48.527344v-161.925781h-151.667969v161.925781l-18.199219 48.527344c-25.5-21.972657-41.671875-54.488281-41.671875-90.714844v-29.933594h29.933594v-29.933593h-43.679687l44.792968-44.808594-76.046875-77.433594-74.6679685 77.433594 43.9921875 44.808594h-44.0625v29.933593h29.933594v299.347657h-29.933594v29.933593h510.886719v-29.933593h-29.9375v-299.347657h29.9375v-29.933593h-43.683594l44.796875-44.808594zm-361.113281 42.820313 33.714844 34.324219-33.707032 33.714844-33.105468-33.714844zm316.214844 228.894531v112.132813l-30.625-81.660157c11.613281-8.632812 21.933593-18.90625 30.625-30.472656zm-6.632813 179.707032h-258.144531l50.121094-133.660157c19.15625 8.925781 40.496093 13.917969 62.984374 13.917969h31.929688c22.492188 0 43.832031-4.992188 62.988281-13.917969zm-83.171875-359.21875v119.738281h-91.800781v-119.738281zm-96.394531 149.675781h100.988281l17.910156 47.757812c-15.847656 7.75-33.644531 12.109375-52.441406 12.109375h-31.929688c-18.796874 0-36.59375-4.359375-52.4375-12.109375zm-54.585938 60.308593-30.625 81.660157v-112.132813c8.6875 11.566406 19.011719 21.839844 30.625 30.472656zm-90.492187-150.113281h29.933594v299.347657h-29.933594zm391.144531 299.347657h-29.933594v-299.347657h29.933594zm-14.96875-408.703126 33.8125 34.425782-33.804687 33.8125-33.8125-33.816406zm0 0" fill="#ffffff" class="color000 svgShape"></path></svg></g></svg>