<svg id="SvgjsSvg1022" width="288" height="288" xmlns="http://www.w3.org/2000/svg" version="1.1" xmlns:xlink="http://www.w3.org/1999/xlink" xmlns:svgjs="http://svgjs.com/svgjs"><defs id="SvgjsDefs1023"></defs><g id="SvgjsG1024"><svg xmlns="http://www.w3.org/2000/svg" viewBox="-31 0 512 512" width="288" height="288"><path d="m300 211v211h90v-30h60c0-21.160156 0-139.402344 0-166 0-124.617188-100.933594-226-225-226s-225 101.382812-225 226v256h180v30h90v-90h-90v30h-150v-60h30v30h90v-211h-90v30h-30v-15c0-26.933594 5.4375-52.617188 15.257812-76h67.222657c2.382812-2.050781 35.902343-60 112.519531-60 75.617188 0 110.539062 58.296875 112.519531 60h67.222657c9.820312 23.382812 15.257812 49.066406 15.257812 76v15h-30v-30zm-90 241h30v30h-30zm-120-211h30v151h-30zm-30 30v91h-30v-91zm292.28125-151c-30.371094-36.730469-76.121094-60-127.28125-60-51.109375 0-96.878906 23.230469-127.28125 60h-36.671875c34.746094-54.105469 95.257813-90 163.953125-90s129.207031 35.894531 163.953125 90zm7.71875 272h-30v-151h30zm60-121v91h-30v-91zm0 0" fill="#ffffff" class="color000 svgShape"></path></svg></g></svg>