<svg id="SvgjsSvg1001" width="288" height="288" xmlns="http://www.w3.org/2000/svg" version="1.1" xmlns:xlink="http://www.w3.org/1999/xlink" xmlns:svgjs="http://svgjs.com/svgjs"><defs id="SvgjsDefs1002"></defs><g id="SvgjsG1008"><svg xmlns="http://www.w3.org/2000/svg" viewBox="-91 0 512 512" width="288" height="288"><path d="m0 332v180h300v-180h-90v-31h30v-90h-25.070312c44.582031-25.132812 67.117187-58.414062 70.546874-62.011719l-9.664062-28.988281h28.167969c2.015625-5.523438 26.019531-44.722656 26.019531-105v-15h-15c-88.136719 0-162.679688 58.488281-186.800781 138.878906-5.363281 17.882813-8.199219 37.632813-8.199219 57.121094v15h-60v90h30v31zm150-136c0-16.605469 2.398438-33.378906 6.9375-48.5 19.25-64.15625 76.542969-110.371094 142.433594-116.746094-1.640625 20.460938-6.5 40.300782-14.511719 59.246094h-50.671875l17.574219 52.714844c-23.125 26.414062-51.949219 45.871094-83.808594 56.488281l-17.953125 5.984375zm-120 286v-30h88.167969l3.535156-10c4.226563-11.964844 15.601563-20 28.296875-20s24.070312 8.035156 28.296875 20l3.535156 10h88.167969v30zm60-241h120v30h-120zm90 60v61h90v60h-68.027344c-10.578125-18.296875-30.3125-30-51.972656-30s-41.394531 11.703125-51.972656 30h-68.027344v-60h90v-61zm0 0" fill="#ffffff" class="color000 svgShape"></path></svg></g></svg>