<svg id="SvgjsSvg1016" width="288" height="288" xmlns="http://www.w3.org/2000/svg" version="1.1" xmlns:xlink="http://www.w3.org/1999/xlink" xmlns:svgjs="http://svgjs.com/svgjs"><defs id="SvgjsDefs1017"></defs><g id="SvgjsG1018"><svg xmlns="http://www.w3.org/2000/svg" viewBox="-61 0 512 512" width="288" height="288"><path d="m270 181h-150v150h150v-20.730469l60 30v-168.539062l-60 30zm-30 120h-90v-90h90zm60-80.730469v71.460938l-30-15v-41.460938zm0 0" fill="#ffffff" class="color000 svgShape"></path><path d="m390 0h-390v512h390c0-44.46875 0-496.203125 0-512zm-30 422h-270v-392h30v84.027344l60 40 60-40v-84.027344h120zm-210-392h60v67.972656l-30 20-30-20zm-120 0h30v392h-30zm330 452h-330v-30h330zm0 0" fill="#ffffff" class="color000 svgShape"></path></svg></g></svg>